<mxfile host="Electron" modified="2024-05-05T16:41:54.800Z" agent="Mozilla/5.0 (Windows NT 10.0; Win64; x64) AppleWebKit/537.36 (KHTML, like Gecko) draw.io/24.2.5 Chrome/120.0.6099.109 Electron/28.1.0 Safari/537.36" etag="vpbumESOfpSXpc9cP-0e" version="24.2.5" type="device">
  <diagram name="페이지-1" id="3to6MCp-gLeeaBygG9lS">
    <mxGraphModel dx="1925" dy="820" grid="1" gridSize="10" guides="1" tooltips="1" connect="1" arrows="1" fold="1" page="1" pageScale="1" pageWidth="827" pageHeight="1169" math="0" shadow="0">
      <root>
        <mxCell id="0" />
        <mxCell id="1" parent="0" />
        <mxCell id="ymiMNob6jcrmnbXdgV_g-23" value="" style="rounded=0;whiteSpace=wrap;html=1;" vertex="1" parent="1">
          <mxGeometry x="-240" y="70" width="930" height="580" as="geometry" />
        </mxCell>
        <mxCell id="ymiMNob6jcrmnbXdgV_g-11" value="" style="edgeStyle=orthogonalEdgeStyle;rounded=0;orthogonalLoop=1;jettySize=auto;html=1;dashed=1;endArrow=block;endFill=0;" edge="1" parent="1" source="ymiMNob6jcrmnbXdgV_g-1" target="ymiMNob6jcrmnbXdgV_g-6">
          <mxGeometry relative="1" as="geometry" />
        </mxCell>
        <mxCell id="ymiMNob6jcrmnbXdgV_g-1" value="&lt;div&gt;&amp;lt;&amp;lt;interface&amp;gt;&amp;gt;&lt;/div&gt;MemberService" style="rounded=0;whiteSpace=wrap;html=1;" vertex="1" parent="1">
          <mxGeometry x="70" y="270" width="120" height="60" as="geometry" />
        </mxCell>
        <mxCell id="ymiMNob6jcrmnbXdgV_g-10" value="" style="edgeStyle=orthogonalEdgeStyle;rounded=0;orthogonalLoop=1;jettySize=auto;html=1;dashed=1;endArrow=block;endFill=0;" edge="1" parent="1" source="ymiMNob6jcrmnbXdgV_g-2" target="ymiMNob6jcrmnbXdgV_g-1">
          <mxGeometry relative="1" as="geometry" />
        </mxCell>
        <mxCell id="ymiMNob6jcrmnbXdgV_g-12" value="" style="edgeStyle=orthogonalEdgeStyle;rounded=0;orthogonalLoop=1;jettySize=auto;html=1;exitX=1;exitY=0.5;exitDx=0;exitDy=0;" edge="1" parent="1" source="ymiMNob6jcrmnbXdgV_g-2" target="ymiMNob6jcrmnbXdgV_g-3">
          <mxGeometry relative="1" as="geometry">
            <Array as="points">
              <mxPoint x="420" y="450" />
              <mxPoint x="420" y="450" />
            </Array>
          </mxGeometry>
        </mxCell>
        <mxCell id="ymiMNob6jcrmnbXdgV_g-2" value="&lt;div&gt;&lt;span style=&quot;background-color: initial;&quot;&gt;MemberServiceImpl&lt;/span&gt;&lt;br&gt;&lt;/div&gt;" style="rounded=0;whiteSpace=wrap;html=1;" vertex="1" parent="1">
          <mxGeometry x="50" y="420" width="160" height="60" as="geometry" />
        </mxCell>
        <mxCell id="ymiMNob6jcrmnbXdgV_g-13" value="" style="edgeStyle=orthogonalEdgeStyle;rounded=0;orthogonalLoop=1;jettySize=auto;html=1;dashed=1;endArrow=block;endFill=0;" edge="1" parent="1" source="ymiMNob6jcrmnbXdgV_g-3" target="ymiMNob6jcrmnbXdgV_g-7">
          <mxGeometry relative="1" as="geometry" />
        </mxCell>
        <mxCell id="ymiMNob6jcrmnbXdgV_g-3" value="&lt;div&gt;&amp;lt;&amp;lt;interface&amp;gt;&amp;gt;&lt;/div&gt;MemberRepository" style="rounded=0;whiteSpace=wrap;html=1;" vertex="1" parent="1">
          <mxGeometry x="360" y="420" width="120" height="60" as="geometry" />
        </mxCell>
        <mxCell id="ymiMNob6jcrmnbXdgV_g-18" value="" style="edgeStyle=orthogonalEdgeStyle;rounded=0;orthogonalLoop=1;jettySize=auto;html=1;dashed=1;endArrow=block;endFill=0;" edge="1" parent="1" source="ymiMNob6jcrmnbXdgV_g-4" target="ymiMNob6jcrmnbXdgV_g-3">
          <mxGeometry relative="1" as="geometry">
            <Array as="points">
              <mxPoint x="295" y="518" />
              <mxPoint x="390" y="518" />
            </Array>
          </mxGeometry>
        </mxCell>
        <mxCell id="ymiMNob6jcrmnbXdgV_g-4" value="MemberMemoryRepository" style="rounded=0;whiteSpace=wrap;html=1;" vertex="1" parent="1">
          <mxGeometry x="210" y="555" width="170" height="60" as="geometry" />
        </mxCell>
        <mxCell id="ymiMNob6jcrmnbXdgV_g-19" value="" style="edgeStyle=orthogonalEdgeStyle;rounded=0;orthogonalLoop=1;jettySize=auto;html=1;dashed=1;endArrow=block;endFill=0;" edge="1" parent="1" source="ymiMNob6jcrmnbXdgV_g-5" target="ymiMNob6jcrmnbXdgV_g-3">
          <mxGeometry relative="1" as="geometry">
            <Array as="points">
              <mxPoint x="570" y="518" />
              <mxPoint x="450" y="518" />
            </Array>
          </mxGeometry>
        </mxCell>
        <mxCell id="ymiMNob6jcrmnbXdgV_g-5" value="MemberDatabaseRepository" style="rounded=0;whiteSpace=wrap;html=1;" vertex="1" parent="1">
          <mxGeometry x="480" y="555" width="180" height="60" as="geometry" />
        </mxCell>
        <mxCell id="ymiMNob6jcrmnbXdgV_g-6" value="&lt;div&gt;&amp;lt;&amp;lt;interface&amp;gt;&amp;gt;&lt;br&gt;&lt;/div&gt;DomainService&amp;lt;Domain&amp;gt;" style="rounded=0;whiteSpace=wrap;html=1;" vertex="1" parent="1">
          <mxGeometry x="50" y="130" width="160" height="60" as="geometry" />
        </mxCell>
        <mxCell id="ymiMNob6jcrmnbXdgV_g-7" value="&lt;div&gt;&amp;lt;&amp;lt;interface&amp;gt;&amp;gt;&lt;/div&gt;DomainRepository&amp;lt;Domain&amp;gt;" style="rounded=0;whiteSpace=wrap;html=1;" vertex="1" parent="1">
          <mxGeometry x="335" y="130" width="170" height="60" as="geometry" />
        </mxCell>
        <mxCell id="ymiMNob6jcrmnbXdgV_g-26" value="&lt;div&gt;&amp;lt;&amp;lt;interface&amp;gt;&amp;gt;&lt;/div&gt;Domain" style="rounded=0;whiteSpace=wrap;html=1;" vertex="1" parent="1">
          <mxGeometry x="-180" y="130" width="120" height="60" as="geometry" />
        </mxCell>
        <mxCell id="ymiMNob6jcrmnbXdgV_g-28" value="" style="edgeStyle=orthogonalEdgeStyle;rounded=0;orthogonalLoop=1;jettySize=auto;html=1;dashed=1;endArrow=block;endFill=0;" edge="1" parent="1" source="ymiMNob6jcrmnbXdgV_g-27" target="ymiMNob6jcrmnbXdgV_g-26">
          <mxGeometry relative="1" as="geometry" />
        </mxCell>
        <mxCell id="ymiMNob6jcrmnbXdgV_g-27" value="Member&lt;div&gt;&lt;/div&gt;" style="rounded=0;whiteSpace=wrap;html=1;" vertex="1" parent="1">
          <mxGeometry x="-180" y="270" width="120" height="60" as="geometry" />
        </mxCell>
      </root>
    </mxGraphModel>
  </diagram>
</mxfile>
